<svg width="497" height="486" viewBox="0 0 497 486" fill="none" xmlns="http://www.w3.org/2000/svg">
<path fill-rule="evenodd" clip-rule="evenodd" d="M207.669 394.971L263.314 450.616L339.326 430.248L283.682 374.604L207.669 394.971Z" fill="#1754B8"/>
<path fill-rule="evenodd" clip-rule="evenodd" d="M228.037 318.959L207.669 394.971L283.682 374.604L304.049 298.592L228.037 318.959Z" fill="#1B64DB"/>
<path fill-rule="evenodd" clip-rule="evenodd" d="M304.049 298.592L359.694 354.237L339.326 430.249L283.682 374.604L304.049 298.592Z" fill="#195BC7"/>
<path fill-rule="evenodd" clip-rule="evenodd" d="M304.049 298.592L359.694 354.236L435.706 333.869L380.061 278.224L304.049 298.592Z" fill="#1754B8"/>
<path fill-rule="evenodd" clip-rule="evenodd" d="M324.417 222.579L304.049 298.591L380.061 278.224L400.429 202.212L324.417 222.579Z" fill="#1B64DB"/>
<path fill-rule="evenodd" clip-rule="evenodd" d="M400.429 202.212L456.074 257.856L435.706 333.869L380.061 278.224L400.429 202.212Z" fill="#195BC7"/>
<path fill-rule="evenodd" clip-rule="evenodd" d="M76.0123 359.694L131.657 415.338L207.669 394.971L152.025 339.326L76.0123 359.694Z" fill="#1754B8"/>
<path fill-rule="evenodd" clip-rule="evenodd" d="M96.3795 283.682L76.012 359.694L152.024 339.326L172.392 263.314L96.3795 283.682Z" fill="#1B64DB"/>
<path fill-rule="evenodd" clip-rule="evenodd" d="M172.392 263.314L228.037 318.959L207.669 394.971L152.024 339.327L172.392 263.314Z" fill="#195BC7"/>
<path fill-rule="evenodd" clip-rule="evenodd" d="M172.392 263.314L228.037 318.959L304.049 298.592L248.404 242.947L172.392 263.314Z" fill="#1754B8"/>
<path fill-rule="evenodd" clip-rule="evenodd" d="M192.759 187.302L172.392 263.314L248.404 242.947L268.772 166.934L192.759 187.302Z" fill="#1B64DB"/>
<path fill-rule="evenodd" clip-rule="evenodd" d="M268.771 166.934L324.416 222.579L304.049 298.591L248.404 242.947L268.771 166.934Z" fill="#195BC7"/>
<path fill-rule="evenodd" clip-rule="evenodd" d="M268.772 166.934L324.416 222.579L400.429 202.212L344.784 146.567L268.772 166.934Z" fill="#1754B8"/>
<path fill-rule="evenodd" clip-rule="evenodd" d="M289.139 90.9223L268.772 166.935L344.784 146.567L365.151 70.555L289.139 90.9223Z" fill="#1B64DB"/>
<path fill-rule="evenodd" clip-rule="evenodd" d="M365.151 70.5552L420.796 126.2L400.429 202.212L344.784 146.567L365.151 70.5552Z" fill="#195BC7"/>
<path fill-rule="evenodd" clip-rule="evenodd" d="M40.7347 228.037L96.3795 283.682L172.392 263.314L116.747 207.669L40.7347 228.037Z" fill="#1754B8"/>
<path fill-rule="evenodd" clip-rule="evenodd" d="M61.1021 152.024L40.7347 228.037L116.747 207.669L137.114 131.657L61.1021 152.024Z" fill="#1B64DB"/>
<path fill-rule="evenodd" clip-rule="evenodd" d="M137.114 131.657L192.759 187.302L172.392 263.314L116.747 207.669L137.114 131.657Z" fill="#195BC7"/>
<path fill-rule="evenodd" clip-rule="evenodd" d="M137.115 131.657L192.759 187.302L268.772 166.934L213.127 111.29L137.115 131.657Z" fill="#1754B8"/>
<path fill-rule="evenodd" clip-rule="evenodd" d="M157.482 55.645L137.114 131.657L213.127 111.29L233.494 35.2776L157.482 55.645Z" fill="#1B64DB"/>
<path fill-rule="evenodd" clip-rule="evenodd" d="M233.494 35.2773L289.139 90.9221L268.771 166.934L213.127 111.29L233.494 35.2773Z" fill="#195BC7"/>
</svg>
